<?xml version="1.0" encoding="UTF-8" standalone="no"?>
<!DOCTYPE svg PUBLIC "-//W3C//DTD SVG 1.1//EN" "http://www.w3.org/Graphics/SVG/1.1/DTD/svg11.dtd">
<svg height="54.701mm" width="50.765mm" viewBox="0 0 179.87363 193.82143" xmlns="http://www.w3.org/2000/svg">
  <ellipse rx="76.372" ry="73.215" stroke="#000" cy="112.77" cx="84.209" stroke-width="1.5" fill="#fff36b" />
  <path stroke-linejoin="round"
    d="m19.919 122.1s21.887 24.126 54.296 24.126c30.409 0 54.296-21.475 54.296-21.475s-24.424 38.26-54.296 38.26c-39.251 0-54.296-40.911-54.296-40.911z"
    stroke="#000" stroke-linecap="round" stroke-width="1.5" fill="#fff" />
  <g stroke="#000" stroke-width="1.5" fill="none">
    <path d="m33.307 144.07v-10.859" />
    <path d="m45.807 154.55v-14.268" />
    <path d="m60.067 161.11v-16.668" />
    <path d="m75.729 145.96v16.668" />
    <path d="m92.529 143.69v14.9" />
    <path d="m103.76 139.9v11.996" />
    <path d="m114.12 134.6v7.4499" />
  </g>
  <circle cy="98.17" cx="44.477" r="2.7148" />
  <circle cy="98.17" cx="87.469" r="2.7148" />
  <path
    d="m135.23 34.328s1.3095 10.476 3.3036 15.714c1.994 5.2381 8.125 15.714 8.125 15.714l3.3929-3.0357s-5.3589-9.6354-7.1429-14.821c-1.6445-4.7804-3.2143-14.821-3.2143-14.821z"
    stroke="#000" stroke-width="1.5" fill="#5692d1" />
  <path
    d="m151.83 77.36s-7.6503-11.493-3.5714-13.929c6.1993-3.7016 11.786 7.3214 11.786 7.3214s3.9286 2.5595 5.8036 6.3393c0.9375 1.8899 3.1027 5.5283 3.962 9.2299 0.85937 3.7016 2.0201 6.7522 2.0201 6.7522l-12.679 5.3571z"
    stroke="#000" stroke-width="1.5" fill="#5692d1" />
  <g stroke="#000" fill="none">
    <path d="m150.94 75.94 9.8214-5" stroke-width="1.5" />
    <g stroke-width="1px" stroke-linecap="round">
      <path d="m164.51 87.9 2.1429 7.3214" />
      <path d="m161.83 88.79 2.1429 7.3214" />
      <path d="m159.33 89.69 2.3214 7.6786" />
      <path d="m167.01 86.83 2.1429 7.3214" />
    </g>
  </g>
  <g stroke="#000" stroke-width="1.5">
    <path
      d="m42.267 32.318 41.921-24.37s17.341 9.5123 27.337 13.448c9.9963 3.9354 32.641 10.165 32.641 10.165l-60.23 20.456z"
      fill="#565656" />
    <path
      d="m60.827 34.338 17.425-6.0609 37.628 6.566 0.75762 10.354s-15.699 4.8403-23.486 6.4397c-7.7866 1.5994-21.971 2.1466-21.971 2.1466s-5.2612-1.894-7.7024-3.5987c-2.4412-1.7046-6.9448-6.6291-6.9448-6.6291z"
      fill="#565656" />
    <path d="m71.059 53.908 5.8084-25.38" fill="none" />
  </g>
</svg>